<svg xmlns="http://www.w3.org/2000/svg" width="512" height="512" viewBox="0 0 512 512">
  <!-- Background -->
  <rect width="512" height="512" rx="80" fill="#4a6baf" />
  
  <!-- Clipboard base -->
  <rect x="128" y="96" width="256" height="352" rx="20" fill="white" />
  
  <!-- Clipboard top -->
  <rect x="176" y="64" width="160" height="48" rx="16" fill="#6c7ae0" />
  
  <!-- Paper layers -->
  <rect x="160" y="144" width="192" height="32" rx="4" fill="#f0f0f0" />
  <rect x="160" y="192" width="192" height="32" rx="4" fill="#f0f0f0" />
  <rect x="160" y="240" width="192" height="32" rx="4" fill="#f0f0f0" />
  <rect x="160" y="288" width="192" height="32" rx="4" fill="#f0f0f0" />
  <rect x="160" y="336" width="192" height="32" rx="4" fill="#f0f0f0" />
  
  <!-- Number badges -->
  <circle cx="144" cy="160" r="16" fill="#6c7ae0" />
  <text x="144" y="166" font-family="Arial" font-size="16" fill="white" text-anchor="middle">1</text>
  
  <circle cx="144" cy="208" r="16" fill="#6c7ae0" />
  <text x="144" y="214" font-family="Arial" font-size="16" fill="white" text-anchor="middle">2</text>
  
  <circle cx="144" cy="256" r="16" fill="#6c7ae0" />
  <text x="144" y="262" font-family="Arial" font-size="16" fill="white" text-anchor="middle">3</text>
  
  <circle cx="144" cy="304" r="16" fill="#6c7ae0" />
  <text x="144" y="310" font-family="Arial" font-size="16" fill="white" text-anchor="middle">4</text>
  
  <circle cx="144" cy="352" r="16" fill="#6c7ae0" />
  <text x="144" y="358" font-family="Arial" font-size="16" fill="white" text-anchor="middle">5</text>
</svg> 